<svg xmlns="http://www.w3.org/2000/svg" viewBox="0 0 512 512">
  <rect width="512" height="512" rx="96" fill="#1a3a6e"/>
  <g fill="#ffffff">
    <!-- Building silhouette -->
    <rect x="120" y="180" width="80" height="240" rx="6"/>
    <rect x="216" y="120" width="80" height="300" rx="6"/>
    <rect x="312" y="220" width="80" height="200" rx="6"/>
    <!-- Windows -->
    <g fill="#1a3a6e">
      <rect x="140" y="210" width="16" height="20"/>
      <rect x="164" y="210" width="16" height="20"/>
      <rect x="140" y="250" width="16" height="20"/>
      <rect x="164" y="250" width="16" height="20"/>
      <rect x="140" y="290" width="16" height="20"/>
      <rect x="164" y="290" width="16" height="20"/>
      <rect x="140" y="330" width="16" height="20"/>
      <rect x="164" y="330" width="16" height="20"/>
      <rect x="236" y="150" width="16" height="20"/>
      <rect x="260" y="150" width="16" height="20"/>
      <rect x="236" y="190" width="16" height="20"/>
      <rect x="260" y="190" width="16" height="20"/>
      <rect x="236" y="230" width="16" height="20"/>
      <rect x="260" y="230" width="16" height="20"/>
      <rect x="236" y="270" width="16" height="20"/>
      <rect x="260" y="270" width="16" height="20"/>
      <rect x="236" y="310" width="16" height="20"/>
      <rect x="260" y="310" width="16" height="20"/>
      <rect x="236" y="350" width="16" height="20"/>
      <rect x="260" y="350" width="16" height="20"/>
      <rect x="332" y="250" width="16" height="20"/>
      <rect x="356" y="250" width="16" height="20"/>
      <rect x="332" y="290" width="16" height="20"/>
      <rect x="356" y="290" width="16" height="20"/>
      <rect x="332" y="330" width="16" height="20"/>
      <rect x="356" y="330" width="16" height="20"/>
    </g>
  </g>
  <!-- FIDI text -->
  <text x="256" y="470" font-family="Arial, sans-serif" font-size="58" font-weight="900" fill="#f5a623" text-anchor="middle" letter-spacing="2">FIDI</text>
</svg>
